<svg width="76" height="72" viewBox="0 0 76 72" fill="none" xmlns="http://www.w3.org/2000/svg">
<g clip-path="url(#clip0_231_1875)">
<g clip-path="url(#clip1_231_1875)">
<g clip-path="url(#clip2_231_1875)">
<g clip-path="url(#clip3_231_1875)">
<g clip-path="url(#clip4_231_1875)">
<g clip-path="url(#clip5_231_1875)">
<g clip-path="url(#clip6_231_1875)">
<g clip-path="url(#clip7_231_1875)">
<g clip-path="url(#clip8_231_1875)">
<path d="M20.7283 34.1093V49.3877C20.7283 51.3591 22.444 52.9705 24.5424 52.9705H33.0485V45.5942C33.0485 43.6677 34.089 42.6823 36.1695 42.6823H39.8575C41.8904 42.6823 42.9312 43.6677 42.9312 45.5942V52.9702H51.4936C53.5913 52.9702 55.3077 51.358 55.3077 49.3874V31.1225C55.3077 29.8013 54.7151 28.6776 53.53 27.753L41.0684 19.8221C39.6617 18.7652 36.3732 18.7652 34.9665 19.8221L22.5056 27.753C21.3212 28.6773 20.7283 29.8013 20.7283 31.1225L20.6921 33.5524" fill="white"/>
</g>
</g>
<path d="M7.6 27.1703L7.41353 27.7547L0 25.6333L0.186471 25.0488L2.53487 25.7207L2.57477 25.5955C2.41246 25.4523 2.3028 25.3124 2.24634 25.1756C2.19016 25.0373 2.19477 24.8663 2.25991 24.6621C2.34786 24.3862 2.49958 24.2033 2.7151 24.1136C2.92871 24.0233 3.23326 24.0347 3.62873 24.1478L8.151 25.442L7.96615 26.0213L3.40154 24.7153C3.19498 24.6562 3.03511 24.6505 2.92166 24.6983C2.80874 24.7444 2.72704 24.847 2.67628 25.0059C2.6239 25.1697 2.62363 25.3247 2.6752 25.4708C2.72731 25.6153 2.84294 25.7452 3.02208 25.8601L7.6 27.1703Z" fill="white"/>
<path d="M10.6059 20.7226C10.459 20.971 10.3038 21.15 10.1401 21.2596C9.97777 21.3696 9.79646 21.4156 9.59587 21.3974C9.39447 21.3807 9.15941 21.3082 8.8907 21.1798C8.65917 21.0672 8.41597 20.9464 8.16056 20.817C7.90623 20.6861 7.64946 20.5522 7.39024 20.4148C7.12967 20.2768 6.8729 20.1387 6.62074 20.0008C6.37076 19.8625 6.13054 19.727 5.9001 19.5951C5.64577 19.4462 5.45822 19.295 5.3377 19.141C5.21637 18.9885 5.1629 18.818 5.17702 18.6295C5.1895 18.44 5.2693 18.2209 5.41614 17.9725C5.56462 17.721 5.71987 17.542 5.88191 17.4358C6.04233 17.3286 6.22337 17.2834 6.42477 17.3001C6.62536 17.3183 6.85906 17.3911 7.12614 17.5186C7.35821 17.6336 7.60223 17.757 7.85819 17.8887C8.1136 18.018 8.37064 18.1512 8.62986 18.2885C8.88907 18.4258 9.14503 18.5644 9.39827 18.7048C9.6507 18.8427 9.8901 18.9756 10.1167 19.1034C10.3694 19.2513 10.5573 19.402 10.6805 19.5552C10.8026 19.71 10.8575 19.88 10.845 20.0659C10.8341 20.2523 10.7546 20.4714 10.6059 20.7226ZM10.1569 20.4848C10.2614 20.3079 10.2967 20.1605 10.2628 20.0425C10.2299 19.9229 10.1162 19.8077 9.92186 19.6966C9.62546 19.5295 9.34751 19.3742 9.08776 19.2307C8.83071 19.0864 8.57666 18.9478 8.32559 18.8149C8.07451 18.682 7.81611 18.549 7.55011 18.4158C7.28683 18.2824 7.00319 18.1399 6.69946 17.989C6.49643 17.8892 6.3333 17.856 6.21007 17.8889C6.08711 17.9218 5.97203 18.0291 5.86509 18.2104C5.75787 18.3919 5.72096 18.5423 5.7538 18.6619C5.78773 18.7799 5.90254 18.8949 6.09851 19.0067C6.39329 19.1728 6.66987 19.3274 6.92773 19.4701C7.1883 19.612 7.4448 19.7501 7.6975 19.8841C7.94857 20.017 8.20616 20.1515 8.47026 20.2876C8.73517 20.422 9.01881 20.5642 9.32091 20.7144C9.52259 20.8132 9.68571 20.8445 9.81057 20.8085C9.93624 20.771 10.0516 20.663 10.1569 20.4848Z" fill="white"/>
<path d="M14.3874 15.7639C14.1863 15.9802 13.9642 16.0882 13.7213 16.0882C13.4808 16.0876 13.2086 15.9606 12.904 15.7066L9.35864 12.7489L9.78451 12.2907L13.363 15.2761C13.5221 15.4088 13.6632 15.4777 13.7865 15.4826C13.9094 15.4852 14.0275 15.4255 14.1409 15.3036C14.2544 15.1817 14.3179 15.0393 14.3318 14.8762C14.3456 14.7132 14.3035 14.5512 14.2053 14.39L10.6162 11.3958L11.0404 10.9396L15.3993 14.5762L14.9753 15.0323L14.5872 14.7086L14.5104 14.7911C14.5948 14.9804 14.6268 15.156 14.6064 15.3183C14.5861 15.4805 14.5131 15.6289 14.3874 15.7639Z" fill="white"/>
<path d="M19.5695 11.3295C19.231 11.5656 18.9387 11.661 18.6927 11.6157C18.4482 11.5692 18.1963 11.3894 17.9368 11.076C17.8595 10.9824 17.774 10.8751 17.6798 10.754C17.5869 10.6344 17.5009 10.5164 17.4219 10.4002L17.8852 10.077C17.9933 10.2251 18.0934 10.358 18.1852 10.4763C18.2769 10.5946 18.3616 10.7003 18.439 10.7939C18.5834 10.9708 18.7153 11.0685 18.835 11.087C18.9549 11.103 19.0983 11.0531 19.2646 10.9371C19.4413 10.8139 19.5418 10.6941 19.5657 10.5774C19.5885 10.4593 19.5306 10.3099 19.3922 10.1289C19.3406 10.0564 19.2937 9.99159 19.2513 9.9345C19.2101 9.8787 19.1691 9.82265 19.1278 9.76685C19.0877 9.71233 19.0413 9.6537 18.9878 9.59096C18.8385 9.4107 18.7052 9.28805 18.588 9.22248C18.4721 9.15588 18.3309 9.1479 18.1645 9.19908L17.7075 9.33562C17.4841 9.40479 17.2857 9.43359 17.1119 9.42228C16.9409 9.41148 16.7794 9.35388 16.6272 9.24948C16.4752 9.14508 16.3112 8.98719 16.1353 8.77582C16.0724 8.70048 16.0175 8.63028 15.9714 8.5647C15.9242 8.49785 15.8734 8.42688 15.8197 8.35179C15.5686 8.02573 15.4589 7.74339 15.4907 7.50425C15.5208 7.26613 15.7144 7.02288 16.0705 6.77422C16.4089 6.53816 16.6994 6.44173 16.9418 6.48545C17.1841 6.52916 17.4349 6.70762 17.6947 7.02108C17.7704 7.11571 17.8535 7.22268 17.9439 7.34199C18.0356 7.46028 18.123 7.57831 18.2055 7.69633L17.7311 8.02728C17.667 7.9419 17.6024 7.85576 17.5373 7.76885C17.4721 7.68193 17.407 7.59836 17.3421 7.51762C17.2772 7.43713 17.2211 7.36771 17.1736 7.30985C17.0351 7.13756 16.9086 7.04113 16.7946 7.02108C16.6817 7.00231 16.5419 7.05091 16.3756 7.16688C16.2062 7.28491 16.1144 7.39779 16.0998 7.50579C16.0878 7.61405 16.1465 7.75728 16.2759 7.93573C16.3397 8.02368 16.3948 8.09902 16.4415 8.16202C16.4866 8.22605 16.5452 8.30113 16.6169 8.38779C16.7615 8.57113 16.8959 8.70716 17.0202 8.79639C17.1434 8.88408 17.299 8.90028 17.4873 8.84473L17.9151 8.70588C18.2202 8.60353 18.4927 8.58708 18.7321 8.65651C18.9742 8.72619 19.2166 8.91725 19.4593 9.22968C19.5228 9.31119 19.5893 9.39836 19.6588 9.49068C19.7293 9.58453 19.7934 9.67428 19.8509 9.76016C20.0884 10.0806 20.1891 10.3603 20.1533 10.6002C20.1175 10.8399 19.9229 11.0832 19.5695 11.3295Z" fill="white"/>
<path d="M25.3251 8.20208C24.9264 8.37565 24.6018 8.42168 24.3512 8.34042C24.1023 8.2584 23.8819 8.04008 23.6898 7.68522C23.5747 7.46434 23.4523 7.22442 23.3228 6.96548C23.195 6.70577 23.0644 6.43885 22.9314 6.16397C22.7984 5.88934 22.6687 5.61985 22.5424 5.35577C22.4173 5.08911 22.303 4.84097 22.1999 4.61108C22.0389 4.2372 22.0091 3.93274 22.1106 3.69848C22.2121 3.46397 22.4564 3.26262 22.8432 3.0942C23.2186 2.93091 23.5275 2.88977 23.7696 2.97077C24.0136 3.05125 24.2324 3.26622 24.4264 3.61645C24.4712 3.7008 24.5358 3.82551 24.62 3.9906C24.7041 4.15594 24.7991 4.34982 24.9052 4.57302C25.0105 4.79442 25.1186 5.03382 25.229 5.29122L23.5652 6.01508C23.6751 6.24214 23.7916 6.47588 23.9145 6.71682C24.0364 6.95597 24.1642 7.2108 24.2972 7.48157C24.4009 7.6788 24.5138 7.79682 24.6362 7.83565C24.7562 7.87371 24.9117 7.85134 25.1028 7.76828C25.2871 7.68805 25.4014 7.59317 25.4456 7.48362C25.4874 7.37305 25.4641 7.2162 25.3756 7.01254C25.3314 6.90865 25.2763 6.78857 25.21 6.65202C25.1438 6.51548 25.0678 6.36505 24.982 6.20048L25.5501 5.95337C25.6194 6.07525 25.6883 6.2046 25.7567 6.34217C25.8246 6.47794 25.8813 6.60137 25.9269 6.71194C26.0821 7.08274 26.1174 7.38154 26.0327 7.60885C25.9481 7.83591 25.7122 8.03365 25.3251 8.20208ZM23.3575 5.58668L24.4609 5.1066C24.3781 4.92737 24.2951 4.752 24.212 4.58048C24.1289 4.40897 24.0529 4.25648 23.9843 4.12302C23.9164 3.98725 23.864 3.88517 23.8266 3.81677C23.7297 3.6378 23.6219 3.5262 23.503 3.48197C23.3841 3.43748 23.2351 3.45445 23.0557 3.53237C22.8614 3.61697 22.7414 3.717 22.6961 3.83297C22.6491 3.94945 22.6665 4.10065 22.7485 4.2858C22.863 4.52622 22.9694 4.752 23.0674 4.96311C23.1656 5.17422 23.2623 5.382 23.3575 5.58668Z" fill="white"/>
<path d="M36.4374 5.65073L35.793 5.66436L35.6641 0.163046L36.3084 0.149417L36.3198 0.639531L36.4444 0.636703C36.5378 0.44616 36.6461 0.30396 36.769 0.210617C36.8923 0.117274 37.0682 0.0681599 37.297 0.0632742C37.5274 0.0583885 37.7128 0.100046 37.8531 0.187731C37.9935 0.275674 38.0958 0.423789 38.1596 0.632074L38.2839 0.629503C38.3773 0.43896 38.4937 0.29136 38.6332 0.187217C38.7727 0.0828171 38.9551 0.0285599 39.1799 0.0236742C39.4841 0.0172456 39.7146 0.0972171 39.8717 0.263331C40.0286 0.427646 40.1136 0.705617 40.1263 1.09673L40.2311 5.57102L39.5867 5.58465L39.4812 1.06819C39.4727 0.864017 39.4277 0.718217 39.3463 0.630789C39.2648 0.54336 39.1394 0.501446 38.9698 0.505046C38.7909 0.508903 38.6392 0.560074 38.5143 0.658817C38.3895 0.75576 38.2969 0.899246 38.2367 1.08927L38.3425 5.61062L37.6981 5.62425L37.5926 1.10805C37.586 0.903874 37.5429 0.757817 37.4631 0.670389C37.3836 0.58296 37.2563 0.541046 37.0812 0.544903C36.9004 0.54876 36.7449 0.596589 36.6143 0.688389C36.4854 0.780189 36.3912 0.924703 36.3312 1.12142L36.4374 5.65073Z" fill="white"/>
<path d="M45.2509 6.38538C44.945 6.32058 44.7404 6.18763 44.6367 5.98655C44.5311 5.78521 44.504 5.51263 44.555 5.16909C44.5705 5.09529 44.5857 5.01892 44.6006 4.93972C44.6153 4.86232 44.6326 4.78801 44.6533 4.71729C44.7189 4.51106 44.8017 4.32901 44.9013 4.17112C45.0007 4.01503 45.1334 3.88029 45.3001 3.76715C45.4681 3.65606 45.6833 3.56118 45.9455 3.48249C46.1 3.43646 46.2574 3.39455 46.4175 3.35701C46.5793 3.31972 46.7395 3.28655 46.8974 3.25749L47.1675 2.11449C47.2139 1.91855 47.2082 1.76683 47.1504 1.65961C47.0939 1.55443 46.9631 1.48038 46.7579 1.43692C46.578 1.39886 46.4349 1.40863 46.3285 1.46649C46.2218 1.52615 46.1391 1.66089 46.0802 1.87046C46.0603 1.93783 46.0373 2.02346 46.0109 2.12683C45.9849 2.22866 45.9599 2.33435 45.936 2.44389C45.9121 2.55343 45.8915 2.65192 45.8747 2.73961L45.2645 2.61026C45.2892 2.49018 45.3185 2.35312 45.3533 2.19961C45.3856 2.04712 45.4176 1.91161 45.4494 1.79306C45.5183 1.54106 45.6119 1.34512 45.73 1.20523C45.8503 1.06432 46.0036 0.975092 46.1901 0.937806C46.3785 0.900778 46.6111 0.911578 46.8879 0.970463C47.1775 1.03192 47.3958 1.12038 47.5426 1.23532C47.6897 1.34898 47.7782 1.49735 47.8083 1.68121C47.8387 1.86481 47.8216 2.09212 47.7579 2.36315L46.7465 6.64098L46.123 6.50881L46.2373 6.02538L46.1347 6.00378C46.0242 6.15935 45.901 6.27275 45.7653 6.34423C45.6293 6.41572 45.458 6.42935 45.2509 6.38538ZM45.5682 5.96675C45.7284 6.00069 45.8728 5.98578 46.0012 5.92175C46.132 5.85643 46.2471 5.74483 46.3467 5.58695L46.7813 3.74838C46.6616 3.76766 46.5372 3.79338 46.4089 3.82501C46.2805 3.85689 46.1331 3.90883 45.9667 3.98109C45.7591 4.06775 45.6062 4.18295 45.508 4.32669C45.4116 4.47095 45.3345 4.64529 45.2767 4.84972C45.2607 4.90192 45.2447 4.96543 45.2287 5.04078C45.2127 5.11612 45.198 5.19095 45.1842 5.26501C45.1538 5.45735 45.1725 5.61421 45.2401 5.73609C45.3077 5.85772 45.4171 5.93486 45.5682 5.96675Z" fill="white"/>
<path d="M51.4509 8.30858L50.8657 8.05324L53.2964 3.05566L53.8816 3.31101L53.6652 3.75612L53.7906 3.81089C53.9505 3.68644 54.1112 3.60646 54.2727 3.57124C54.4347 3.53421 54.6139 3.55864 54.8099 3.64401C55.0862 3.76461 55.2555 3.93175 55.318 4.14569C55.3812 4.35784 55.328 4.64249 55.1586 4.99941L53.1818 9.06407L52.6015 8.81078L54.5971 4.70806C54.6839 4.52086 54.7111 4.37121 54.6782 4.25884C54.6473 4.14724 54.5523 4.05672 54.3932 3.98729C54.2409 3.92069 54.0803 3.90449 53.9114 3.93844C53.7434 3.97084 53.5903 4.05595 53.4522 4.19404L51.4509 8.30858Z" fill="white"/>
<path d="M57.4808 11.7962C57.2308 11.6172 57.1024 11.4159 57.0959 11.1922C57.088 10.9674 57.1822 10.7088 57.3787 10.4161C57.4252 10.3552 57.4724 10.2917 57.5204 10.2253C57.5674 10.1605 57.616 10.0998 57.6656 10.0433C57.8157 9.88127 57.9705 9.74807 58.1301 9.64341C58.2886 9.5403 58.4685 9.46959 58.6697 9.43204C58.8711 9.39681 59.1086 9.39476 59.3816 9.42613C59.5423 9.4449 59.7038 9.46856 59.8661 9.49684C60.0298 9.52641 60.1899 9.55882 60.3463 9.59456L61.0916 8.6601C61.2195 8.4999 61.2805 8.3595 61.2748 8.23916C61.2694 8.12139 61.1828 8.00259 61.0151 7.8825C60.868 7.77707 60.7333 7.73001 60.6112 7.74133C60.488 7.75393 60.3539 7.84393 60.2087 8.01133C60.1612 8.06507 60.1028 8.13373 60.0336 8.21781C59.9655 8.30036 59.8965 8.38676 59.8268 8.47701C59.757 8.56727 59.6954 8.64904 59.6416 8.72207L59.143 8.36516C59.2179 8.26539 59.3045 8.1525 59.4031 8.02599C59.4991 7.89973 59.5874 7.78916 59.6682 7.6935C59.8411 7.49113 60.0119 7.34944 60.1804 7.2687C60.3514 7.18744 60.53 7.16636 60.7162 7.20544C60.9038 7.24556 61.1109 7.34661 61.3373 7.50887C61.5742 7.67833 61.7341 7.84444 61.8171 8.00696C61.9013 8.16793 61.917 8.3379 61.8644 8.51687C61.8117 8.69584 61.6969 8.89616 61.5205 9.11782L58.7307 12.6155L58.221 12.2506L58.5361 11.8554L58.4522 11.7954C58.2837 11.8937 58.1219 11.9487 57.9669 11.9603C57.8119 11.9718 57.6499 11.9173 57.4808 11.7962ZM57.9525 11.5396C58.0834 11.6334 58.2215 11.6761 58.3665 11.6682C58.5141 11.6599 58.6678 11.6036 58.8274 11.499L60.0263 9.99596C59.9087 9.96664 59.7844 9.94119 59.6536 9.91959C59.5228 9.89824 59.3659 9.8877 59.1829 9.88821C58.956 9.88564 58.7666 9.93064 58.6143 10.023C58.4634 10.1163 58.3171 10.2449 58.1754 10.4082C58.1379 10.4493 58.0956 10.501 58.0481 10.5635C58.0006 10.626 57.9544 10.6879 57.9097 10.7502C57.7981 10.9132 57.7463 11.0636 57.7547 11.2007C57.7631 11.338 57.829 11.4509 57.9525 11.5396Z" fill="white"/>
<path d="M61.4062 17.3184C61.1426 17.0239 60.9825 16.7519 60.9255 16.5019C60.8674 16.2507 60.9426 16.028 61.1505 15.8334C61.1703 15.8174 61.1923 15.7963 61.2167 15.7698C61.2425 15.7446 61.2726 15.7202 61.3077 15.6968C61.4542 15.5906 61.6038 15.5469 61.7566 15.5664C61.9094 15.5857 62.044 15.6446 62.161 15.7428L62.2604 15.6634C62.2036 15.5325 62.1819 15.415 62.1947 15.3106C62.2064 15.2075 62.2563 15.1146 62.3445 15.0321C62.367 15.0141 62.3882 14.9971 62.4078 14.9814C62.4276 14.9655 62.4479 14.9493 62.4688 14.9323C62.5736 14.8549 62.6898 14.8212 62.8173 14.831C62.9446 14.841 63.0546 14.8855 63.1471 14.9647L63.2462 14.885C63.2025 14.7117 63.2182 14.5433 63.294 14.3792C63.3711 14.2141 63.5076 14.0452 63.703 13.8721C63.8599 13.7394 64.0002 13.6206 64.1245 13.5165C64.2489 13.4121 64.3699 13.3126 64.488 13.2174C64.6061 13.1226 64.7347 13.0218 64.8734 12.9148C65.0108 12.8091 65.1685 12.688 65.3465 12.552C65.5685 12.3894 65.7759 12.2861 65.9681 12.2416C66.1578 12.1968 66.3408 12.2148 66.5166 12.2956C66.6928 12.3763 66.8752 12.5219 67.0636 12.7322C67.2652 12.9575 67.3898 13.1616 67.4381 13.3452C67.4875 13.5301 67.4637 13.713 67.367 13.8937L67.4493 13.9855C67.5855 13.8919 67.7164 13.8557 67.8415 13.8768C67.968 13.8966 68.0879 13.9696 68.2011 14.0964L67.8108 14.4098L67.7107 14.298C67.6309 14.2087 67.5261 14.1727 67.3961 14.1897C67.2666 14.2044 67.1149 14.2805 66.9406 14.4183L66.5202 14.7423C66.417 14.8297 66.3185 14.9112 66.224 14.9871C66.1312 15.0617 66.0397 15.1352 65.9499 15.2072C65.8598 15.2795 65.7651 15.3546 65.6654 15.4325C65.5658 15.5101 65.4537 15.5958 65.3291 15.6888C65.1047 15.8485 64.8984 15.9501 64.71 15.9938C64.5192 16.0373 64.3357 16.0185 64.1596 15.9378C63.9834 15.857 63.8018 15.7122 63.6145 15.5029C63.4628 15.3224 63.3284 15.2129 63.2112 15.174C63.0931 15.1339 62.9818 15.1555 62.8779 15.2394L62.8336 15.2748C62.7728 15.3283 62.7381 15.387 62.7299 15.4507C62.7245 15.5148 62.7465 15.5922 62.7962 15.6827C62.8469 15.7747 62.9286 15.8899 63.041 16.029C63.3187 16.3579 63.4832 16.6485 63.5342 16.9005C63.5855 17.1525 63.4889 17.3927 63.244 17.6215C63.2155 17.649 63.1851 17.6758 63.1528 17.7018C63.1205 17.7277 63.0863 17.7529 63.05 17.7774C62.8564 17.9124 62.6683 17.9774 62.4854 17.973C62.3 17.9684 62.1181 17.9072 61.9401 17.7894C61.7618 17.674 61.5837 17.5169 61.4062 17.3184ZM61.7913 17.0193C61.8986 17.1391 62.0014 17.2353 62.0997 17.3073C62.1993 17.3808 62.2984 17.4225 62.3969 17.4328C62.4954 17.4431 62.5961 17.4135 62.699 17.3446C62.7297 17.3222 62.7579 17.2996 62.7834 17.277C62.8087 17.2566 62.8336 17.2343 62.8578 17.2101C62.9503 17.1245 62.997 17.0376 62.9981 16.9496C62.9978 16.863 62.9666 16.7686 62.905 16.6673C62.8434 16.5634 62.7617 16.4502 62.6596 16.3284C62.5136 16.1409 62.3714 16.0172 62.2327 15.9568C62.094 15.8964 61.9466 15.9208 61.7908 16.0301C61.7631 16.0478 61.736 16.0674 61.7091 16.089C61.6825 16.1103 61.6575 16.1327 61.6347 16.1556C61.5395 16.2435 61.4879 16.332 61.4803 16.4204C61.4711 16.5102 61.4958 16.6038 61.5538 16.7015C61.6106 16.8002 61.6898 16.9062 61.7913 17.0193ZM64.0067 15.1879C64.1487 15.3466 64.2831 15.432 64.4104 15.4443C64.5387 15.4579 64.6924 15.3988 64.8712 15.2664C65.0053 15.1679 65.1454 15.0622 65.2914 14.9496C65.4369 14.8395 65.5859 14.7233 65.7376 14.6014C65.8896 14.4795 66.0381 14.3566 66.1836 14.2326C66.3318 14.1092 66.4751 13.9871 66.6138 13.8665C66.7824 13.7196 66.8698 13.5852 66.8766 13.4633C66.8844 13.3424 66.8174 13.2028 66.6754 13.0441C66.5335 12.8855 66.3978 12.7988 66.2683 12.7836C66.1388 12.7685 65.9849 12.8292 65.8071 12.9652C65.6519 13.0806 65.4969 13.1994 65.3424 13.3213C65.1883 13.4406 65.0379 13.5592 64.8916 13.6767C64.7453 13.7942 64.6031 13.9107 64.4649 14.0262C64.3254 14.1406 64.1927 14.2527 64.0667 14.3633C63.9012 14.5078 63.8143 14.6418 63.8062 14.7649C63.798 14.8884 63.8651 15.0293 64.0067 15.1879Z" fill="white"/>
<path d="M66.3782 21.7435C66.1679 21.3786 66.097 21.0749 66.1652 20.8327C66.2344 20.592 66.4491 20.3683 66.8093 20.1621C67.034 20.0379 67.278 19.9057 67.5419 19.7653C67.8065 19.6265 68.0787 19.4848 68.3586 19.3397C68.6384 19.195 68.9134 19.0538 69.1826 18.9165C69.4546 18.7797 69.7081 18.6545 69.9432 18.5408C70.3259 18.3629 70.644 18.3135 70.8981 18.3932C71.1519 18.4729 71.381 18.6897 71.5851 19.044C71.7829 19.3876 71.8478 19.6763 71.7791 19.9109C71.7113 20.1469 71.4998 20.3688 71.1448 20.5763C71.0593 20.6247 70.9323 20.6941 70.7643 20.7854C70.596 20.8764 70.3984 20.9798 70.1707 21.0953C69.9448 21.2102 69.7003 21.3287 69.4367 21.4511L68.5592 19.9286C68.3276 20.0484 68.0896 20.1744 67.8445 20.3071C67.601 20.439 67.3415 20.5771 67.0658 20.7221C66.8655 20.8337 66.749 20.9487 66.7164 21.067C66.6847 21.1829 66.7189 21.3285 66.8196 21.5031C66.9168 21.6718 67.0245 21.7731 67.1431 21.8075C67.2623 21.8394 67.4262 21.8065 67.6344 21.7085C67.7405 21.6597 67.8632 21.599 68.0025 21.5273C68.1417 21.4553 68.2948 21.373 68.4623 21.2804L68.7619 21.8001C68.6384 21.8739 68.5068 21.9479 68.3667 22.0225C68.2283 22.0961 68.1024 22.1583 67.9889 22.2089C67.6092 22.3815 67.297 22.4355 67.0519 22.3712C66.8068 22.3069 66.5824 22.0976 66.3782 21.7435ZM68.9962 19.7026L69.5781 20.7121C69.7611 20.6213 69.9399 20.5308 70.1147 20.4406C70.2895 20.3501 70.4448 20.2678 70.5805 20.1935C70.7189 20.1199 70.8226 20.0633 70.8924 20.0235C71.074 19.9196 71.1842 19.8098 71.2224 19.6943C71.261 19.5789 71.233 19.4393 71.1386 19.2749C71.036 19.097 70.9222 18.9908 70.7971 18.9561C70.6712 18.9198 70.5132 18.9466 70.3237 19.0368C70.0784 19.1618 69.8482 19.2778 69.6327 19.3853C69.4172 19.4927 69.2052 19.5984 68.9962 19.7026Z" fill="white"/>
<path d="M68.7721 27.1011L68.5813 26.5181L74.129 24.8886L74.3198 25.4716L73.7941 25.6261L73.8343 25.7488C74.0528 25.7377 74.2189 25.774 74.3331 25.8573C74.4455 25.9414 74.5316 26.0743 74.591 26.2561C74.6062 26.3029 74.6211 26.3515 74.6361 26.4022C74.6494 26.4549 74.6618 26.4988 74.6732 26.5338L74.1792 26.6788L74.0899 26.406C74.0096 26.1607 73.9018 25.993 73.7661 25.903C73.6329 25.8141 73.451 25.7781 73.2208 25.7945L68.7721 27.1011Z" fill="white"/>
<path d="M0.38208 36.0232C0.38208 34.4754 1.70665 33.2206 3.34065 33.2206C4.97438 33.2206 6.29895 34.4754 6.29895 36.0232C6.29895 37.5709 4.97438 38.8258 3.34065 38.826C1.70692 38.826 0.382352 37.5712 0.38208 36.0232Z" fill="white"/>
<path d="M70.0835 36.0232C70.0835 34.4754 71.4081 33.2206 73.0418 33.2206C74.6755 33.2206 76.0001 34.4754 76.0001 36.0232C76.0001 37.5709 74.6755 38.8258 73.0418 38.826C71.4081 38.826 70.0835 37.5712 70.0835 36.0232Z" fill="white"/>
<path d="M2.03974 46.4673L1.85327 45.883L9.26707 43.7616L9.45327 44.3458L7.10487 45.018L7.14477 45.1435C7.36354 45.1777 7.53671 45.2366 7.66347 45.3207C7.79104 45.4065 7.88713 45.5513 7.95227 45.7552C8.04021 46.0311 8.02067 46.2631 7.89391 46.4508C7.76878 46.638 7.50848 46.7884 7.11301 46.9016L2.59074 48.1955L2.4059 47.6162L6.97051 46.3099C7.17707 46.2507 7.3136 46.1715 7.38037 46.0723C7.44741 45.9746 7.45556 45.8463 7.4048 45.6876C7.35241 45.5238 7.2623 45.3945 7.13391 45.2998C7.00607 45.2067 6.83398 45.1594 6.61766 45.1574L2.03974 46.4673Z" fill="white"/>
<path d="M5.41614 54.074C5.2693 53.8256 5.18977 53.6066 5.17702 53.4171C5.1629 53.2283 5.21637 53.0578 5.3377 52.9056C5.45822 52.7518 5.64632 52.5999 5.90254 52.4502C6.12484 52.3224 6.36126 52.1892 6.61097 52.0506C6.86177 51.9135 7.11692 51.7765 7.37586 51.6394C7.63643 51.5013 7.89483 51.3663 8.15106 51.2347C8.40647 51.1053 8.65374 50.9822 8.89314 50.8652C9.16023 50.7376 9.39447 50.6656 9.59587 50.6489C9.79646 50.6307 9.97777 50.6767 10.1401 50.787C10.304 50.8963 10.4593 51.0752 10.6059 51.3236C10.7543 51.5751 10.8341 51.7942 10.845 51.9807C10.8575 52.1663 10.8035 52.336 10.6829 52.4898C10.5616 52.6423 10.3738 52.7927 10.1192 52.9416C9.89417 53.0689 9.65559 53.2013 9.40316 53.3391C9.15317 53.4775 8.89857 53.6156 8.63963 53.7529C8.38042 53.8902 8.12174 54.0244 7.86307 54.1553C7.60712 54.287 7.36202 54.4107 7.12859 54.5266C6.86313 54.6531 6.62943 54.7262 6.42722 54.7452C6.22419 54.7627 6.04233 54.7179 5.88192 54.6107C5.71987 54.5045 5.56462 54.3255 5.41614 54.074ZM5.86509 53.8359C5.96959 54.0129 6.08359 54.1185 6.20736 54.153C6.33221 54.189 6.49534 54.1576 6.69702 54.0589C7.00237 53.9069 7.28764 53.7639 7.55256 53.6295C7.81693 53.4973 8.07452 53.3648 8.32559 53.2316C8.57666 53.0987 8.83153 52.9596 9.0902 52.8146C9.34833 52.6719 9.62464 52.5173 9.91941 52.3509C10.1154 52.2391 10.2307 52.1249 10.2655 52.0084C10.3002 51.8919 10.2641 51.7431 10.1569 51.5618C10.0497 51.3802 9.9338 51.2717 9.80922 51.2357C9.68544 51.2013 9.52177 51.2339 9.31847 51.3334C9.01474 51.4844 8.7311 51.6268 8.46782 51.7603C8.20372 51.8963 7.94532 52.0311 7.69262 52.165C7.44154 52.298 7.18586 52.4355 6.92529 52.5777C6.6658 52.7212 6.38921 52.8758 6.09607 53.0411C5.90173 53.1522 5.788 53.2674 5.75516 53.387C5.72313 53.5081 5.75977 53.6577 5.86509 53.8362V53.8359Z" fill="white"/>
<path d="M9.92442 60.0056C9.7233 59.7893 9.63834 59.5669 9.66928 59.3385C9.70022 59.1128 9.8677 58.8726 10.1722 58.6188L13.7176 55.6611L14.1435 56.1194L10.565 59.1048C10.4059 59.2375 10.3158 59.3614 10.2949 59.4766C10.2767 59.5918 10.3242 59.7104 10.4377 59.8322C10.5512 59.9541 10.692 60.032 10.8611 60.0657C11.03 60.0994 11.205 60.0801 11.3863 60.0081L14.9752 57.014L15.3994 57.4701L11.0403 61.1069L10.616 60.6507L11.0044 60.3267L10.9276 60.2442C10.7189 60.2997 10.5308 60.3077 10.3636 60.2678C10.1964 60.228 10.0501 60.1408 9.92442 60.0056Z" fill="white"/>
<path d="M16.0438 65.2536C15.7053 65.0176 15.5224 64.7815 15.495 64.5454C15.4692 64.3104 15.5756 64.0291 15.8147 63.701C15.8861 63.6033 15.9689 63.494 16.0628 63.3731C16.1556 63.2536 16.249 63.1409 16.3429 63.0347L16.806 63.358C16.689 63.4996 16.5845 63.6298 16.4928 63.7478C16.401 63.8661 16.3193 63.9738 16.2479 64.0715C16.1125 64.2546 16.053 64.4032 16.0701 64.5169C16.0897 64.6303 16.1825 64.745 16.3489 64.8612C16.5256 64.9844 16.6762 65.0397 16.8006 65.0266C16.9262 65.0122 17.0598 64.9155 17.2012 64.7365C17.2587 64.6684 17.3103 64.6064 17.3554 64.5514C17.3996 64.4976 17.4436 64.4436 17.4878 64.3899C17.531 64.3374 17.576 64.2778 17.6233 64.2112C17.7606 64.0227 17.8447 63.8656 17.8762 63.7398C17.9091 63.6151 17.8749 63.4852 17.7742 63.3497L17.5006 62.9769C17.3646 62.7953 17.2766 62.6243 17.2365 62.4639C17.1966 62.306 17.2066 62.1427 17.2666 61.974C17.3266 61.8056 17.4371 61.6102 17.598 61.3885C17.6553 61.309 17.7098 61.2388 17.7622 61.1776C17.8154 61.1149 17.8722 61.048 17.9319 60.9771C18.1859 60.6531 18.4381 60.47 18.6883 60.4278C18.9372 60.3846 19.2399 60.4872 19.5963 60.7356C19.9347 60.9717 20.118 61.2059 20.1462 61.4379C20.1741 61.6701 20.0688 61.9501 19.8297 62.2782C19.757 62.3749 19.6736 62.4819 19.5805 62.5989C19.4888 62.7172 19.3954 62.8311 19.301 62.9409L18.8265 62.6099C18.8935 62.5266 18.9611 62.4425 19.0295 62.3577C19.0977 62.2728 19.1628 62.1892 19.2247 62.1064C19.2866 62.0239 19.3398 61.9524 19.384 61.8925C19.5167 61.7161 19.5762 61.5731 19.5626 61.4638C19.548 61.3561 19.4576 61.244 19.2912 61.128C19.1218 61.01 18.9807 60.9604 18.8678 60.9791C18.7551 61.0002 18.6281 61.0961 18.4867 61.2664C18.4169 61.3502 18.3575 61.4224 18.3078 61.4831C18.2568 61.543 18.1981 61.6181 18.1322 61.7089C17.9905 61.8943 17.8931 62.0563 17.8401 62.1952C17.7883 62.3325 17.8181 62.4783 17.93 62.632L18.1971 62.9779C18.3909 63.2237 18.488 63.4652 18.4894 63.7023C18.491 63.9419 18.3702 64.2178 18.1276 64.5303C18.0641 64.6118 17.9962 64.6979 17.9237 64.7882C17.8502 64.88 17.7785 64.9646 17.709 65.042C17.4566 65.3518 17.2044 65.5262 16.9523 65.565C16.7001 65.6038 16.3972 65.5 16.0438 65.2536Z" fill="white"/>
<path d="M22.8484 68.9544C22.4496 68.7808 22.201 68.5777 22.103 68.3447C22.0067 68.1125 22.0376 67.8117 22.1964 67.4427C22.2982 67.2159 22.4105 66.9716 22.5332 66.7098C22.6578 66.4488 22.7865 66.1809 22.9197 65.9062C23.0527 65.6316 23.1841 65.3629 23.3136 65.1001C23.4455 64.8365 23.5698 64.5925 23.6865 64.3685C23.8811 64.009 24.1051 63.7894 24.3589 63.7095C24.6126 63.6295 24.9332 63.6737 25.3203 63.8421C25.6956 64.0054 25.9299 64.2006 26.0227 64.4274C26.1174 64.655 26.0879 64.9525 25.934 65.3202C25.8957 65.4074 25.8379 65.5352 25.7605 65.7031C25.6832 65.8713 25.5898 66.0662 25.4801 66.2876C25.3716 66.5074 25.2502 66.7412 25.1161 66.9885L23.452 66.2647C23.3421 66.4917 23.2305 66.7278 23.1182 66.9729C23.0063 67.2164 22.8853 67.4743 22.7553 67.7463C22.6651 67.9492 22.6442 68.1074 22.6928 68.2208C22.7403 68.3319 22.8598 68.4288 23.0506 68.5121C23.2349 68.5923 23.3852 68.6127 23.502 68.5728C23.6176 68.5309 23.7281 68.4118 23.8336 68.2154C23.8879 68.1159 23.9482 67.9981 24.0141 67.8615C24.0804 67.725 24.1512 67.5723 24.2272 67.4033L24.7953 67.6504C24.7429 67.7795 24.684 67.9135 24.6186 68.0523C24.554 68.1897 24.4924 68.3108 24.4335 68.4157C24.2381 68.769 24.0217 68.9891 23.7845 69.0763C23.5476 69.1635 23.2354 69.1228 22.8484 68.9544ZM23.6599 65.836L24.7633 66.3161C24.8529 66.1397 24.9392 65.9659 25.0222 65.7944C25.1053 65.6229 25.178 65.4691 25.2399 65.3325C25.3045 65.1952 25.352 65.0911 25.3824 65.0199C25.4625 64.8337 25.4815 64.6833 25.4397 64.5688C25.3976 64.4544 25.2871 64.3582 25.1077 64.2803C24.9134 64.1957 24.7551 64.1749 24.6327 64.2178C24.5087 64.26 24.3993 64.3708 24.3043 64.5506C24.1865 64.7895 24.0749 65.0132 23.9699 65.2212C23.8649 65.4292 23.7617 65.6342 23.6599 65.836Z" fill="white"/>
<path d="M36.3084 71.8969L35.6641 71.8835L35.793 66.3822L36.4374 66.3958L36.4257 66.8857L36.5503 66.8883C36.6523 66.7016 36.7671 66.5643 36.8947 66.4761C37.0223 66.3879 37.2003 66.3462 37.4289 66.3511C37.6593 66.356 37.8426 66.4051 37.9785 66.4989C38.1148 66.5925 38.2098 66.745 38.2638 66.9556L38.3884 66.9582C38.4904 66.7715 38.6137 66.6293 38.7581 66.5311C38.9025 66.4329 39.087 66.3861 39.3118 66.3907C39.6161 66.3971 39.8424 66.4866 39.9917 66.6591C40.1407 66.8301 40.2127 67.1112 40.207 67.5023L40.1022 71.9766L39.4581 71.9632L39.5637 67.447C39.5648 67.2426 39.5268 67.095 39.4497 67.0042C39.3726 66.9135 39.2491 66.8664 39.0795 66.8628C38.9006 66.8589 38.7464 66.9039 38.6172 66.9973C38.4877 67.0888 38.3887 67.2285 38.3194 67.4154L38.2136 71.937L37.5695 71.9234L37.6751 67.4072C37.6781 67.2027 37.6417 67.0551 37.5665 66.9646C37.491 66.8739 37.3659 66.8268 37.1908 66.8229C37.0101 66.8191 36.8524 66.8605 36.7177 66.9469C36.5847 67.0333 36.4838 67.1734 36.4146 67.3676L36.3084 71.8969Z" fill="white"/>
<path d="M46.5481 71.1484C46.2422 71.2132 45.9971 71.1756 45.8128 71.0357C45.6269 70.8961 45.4795 70.6608 45.3709 70.3294C45.3519 70.2563 45.3313 70.1812 45.309 70.1033C45.2873 70.0275 45.2697 69.9532 45.2564 69.8809C45.223 69.6677 45.2159 69.4697 45.2349 69.2866C45.2545 69.1054 45.3139 68.9297 45.4138 68.76C45.5156 68.5916 45.6676 68.4188 45.8695 68.2419C45.9887 68.1377 46.1119 68.0364 46.2398 67.9377C46.3695 67.8387 46.4993 67.744 46.629 67.6538L46.3589 66.5108C46.3125 66.3148 46.2392 66.1798 46.1385 66.1066C46.0403 66.0343 45.8885 66.0199 45.6833 66.0634C45.5034 66.1014 45.3785 66.1683 45.3085 66.2637C45.2387 66.3609 45.2246 66.5159 45.2653 66.7294C45.2778 66.7983 45.2955 66.8849 45.3183 66.9893C45.3405 67.0919 45.3655 67.1976 45.3932 67.3064C45.4209 67.4152 45.4467 67.5126 45.4708 67.5988L44.8609 67.7281C44.8292 67.6096 44.7941 67.4738 44.7561 67.3208C44.7168 67.1698 44.6848 67.0343 44.6601 66.9142C44.609 66.6584 44.6055 66.4434 44.6492 66.2693C44.6945 66.0932 44.7931 65.9507 44.9451 65.8414C45.0987 65.7319 45.3139 65.6478 45.5911 65.5889C45.8807 65.5275 46.1179 65.5192 46.3022 65.5642C46.4862 65.6074 46.6333 65.7062 46.7435 65.86C46.8537 66.0137 46.9406 66.2264 47.0047 66.4974L48.0157 70.7752L47.3923 70.9074L47.2783 70.4242L47.1757 70.4458C47.1458 70.6312 47.0855 70.7837 46.9946 70.903C46.9037 71.0226 46.7552 71.1041 46.5481 71.1484ZM46.6464 70.6413C46.8065 70.6073 46.9303 70.5353 47.0177 70.4255C47.1064 70.3137 47.1605 70.1661 47.1795 69.9832L46.7449 68.1447C46.6453 68.2105 46.5443 68.2838 46.4428 68.3645C46.341 68.4453 46.2311 68.5517 46.113 68.6842C45.9643 68.8464 45.878 69.0125 45.8538 69.1822C45.8315 69.3517 45.8402 69.5404 45.8799 69.7487C45.8888 69.8022 45.9029 69.8665 45.9225 69.9411C45.942 70.0156 45.9621 70.0892 45.9833 70.1617C46.0424 70.3479 46.1298 70.4824 46.2457 70.5652C46.3616 70.648 46.4952 70.6734 46.6464 70.6413Z" fill="white"/>
<path d="M53.8816 68.7355L53.2964 68.9909L50.8657 63.9933L51.4512 63.7377L51.6675 64.1828L51.7932 64.128C51.7973 63.9321 51.8377 63.7644 51.914 63.6251C51.9897 63.4844 52.1254 63.3713 52.3214 63.2856C52.5977 63.165 52.842 63.1517 53.0543 63.2458C53.2657 63.3381 53.4595 63.5613 53.6357 63.9151L55.6125 67.98L55.0322 68.2333L53.0369 64.1304C52.9432 63.9462 52.8406 63.8292 52.7294 63.7799C52.6197 63.7297 52.4853 63.7392 52.326 63.8087C52.1737 63.8753 52.0562 63.9802 51.974 64.1242C51.8909 64.2664 51.8597 64.4317 51.8806 64.6207L53.8816 68.7355Z" fill="white"/>
<path d="M61.0591 64.7367C60.8091 64.9157 60.5694 64.9776 60.3406 64.9224C60.1102 64.8684 59.8732 64.7118 59.6297 64.4528C59.5803 64.3939 59.5288 64.3335 59.4745 64.2713C59.4216 64.2106 59.3732 64.1502 59.3295 64.0895C59.206 63.9084 59.1129 63.731 59.0502 63.5569C58.9886 63.3841 58.9664 63.2011 58.9829 63.0074C59.0022 62.8141 59.0649 62.5973 59.1713 62.3571C59.2343 62.2157 59.3021 62.075 59.3754 61.9349C59.45 61.7937 59.5269 61.6569 59.6058 61.5237L58.8605 60.5892C58.7327 60.429 58.607 60.3352 58.4832 60.3077C58.3622 60.2804 58.2178 60.327 58.05 60.4471C57.9029 60.5525 57.8182 60.6623 57.7962 60.7764C57.7753 60.8922 57.8302 61.039 57.9605 61.2172C58.002 61.275 58.056 61.3471 58.1222 61.4329C58.1874 61.5175 58.2563 61.6039 58.3291 61.6921C58.4018 61.7803 58.4678 61.8588 58.5275 61.9279L58.0289 62.2848C57.948 62.1894 57.857 62.0794 57.7553 61.9552C57.6535 61.8333 57.565 61.7225 57.4903 61.6227C57.3321 61.4098 57.2349 61.2154 57.1988 61.04C57.163 60.8621 57.1904 60.6934 57.2808 60.5345C57.3728 60.3745 57.5321 60.2133 57.7585 60.0513C57.9955 59.8819 58.2075 59.7813 58.3953 59.7499C58.5818 59.7173 58.7587 59.7492 58.9262 59.8461C59.0937 59.943 59.2657 60.1022 59.4424 60.3239L62.2322 63.8213L61.7224 64.1862L61.4073 63.7909L61.3234 63.8511C61.3772 64.0316 61.3889 64.1939 61.3585 64.3384C61.3281 64.4829 61.2282 64.6158 61.0591 64.7367ZM60.9272 64.2366C61.058 64.1427 61.1394 64.0288 61.1709 63.8946C61.2029 63.7578 61.1875 63.6024 61.1248 63.4284L59.9259 61.9251C59.864 62.0241 59.8043 62.1303 59.7467 62.244C59.6892 62.3574 59.6357 62.4975 59.5863 62.6641C59.5217 62.8701 59.5157 63.0552 59.5678 63.2193C59.6216 63.3823 59.712 63.5508 59.8393 63.7246C59.8708 63.7698 59.9118 63.8228 59.9622 63.883C60.0127 63.9432 60.0632 64.0023 60.114 64.0602C60.2491 64.2065 60.3876 64.2944 60.5293 64.3245C60.6709 64.3543 60.8037 64.325 60.9272 64.2366Z" fill="white"/>
<path d="M68.2367 60.2156C67.9732 60.5101 67.7159 60.7042 67.4651 60.7981C67.2129 60.8932 66.9686 60.8598 66.7322 60.6973C66.7124 60.6813 66.6869 60.6644 66.6551 60.6456C66.6247 60.6255 66.5943 60.6014 66.5645 60.5726C66.4298 60.453 66.3601 60.32 66.3552 60.1745C66.3503 60.0287 66.3896 59.8929 66.4727 59.7674L66.3736 59.6877C66.2466 59.762 66.1277 59.8016 66.017 59.8065C65.9076 59.8127 65.8028 59.7811 65.7027 59.7122C65.6801 59.6942 65.659 59.6772 65.6394 59.6612C65.6196 59.6453 65.5993 59.6291 65.5784 59.6121C65.4806 59.5268 65.4266 59.4239 65.416 59.3033C65.4055 59.1827 65.434 59.0726 65.501 58.9731L65.4019 58.8934C65.2288 58.9626 65.0507 58.9754 64.8675 58.9315C64.6829 58.8865 64.4848 58.7864 64.2725 58.6319C64.1086 58.5072 63.9623 58.3953 63.8331 58.2963C63.7041 58.1973 63.5806 58.1004 63.4626 58.0055C63.3445 57.9106 63.2183 57.807 63.0842 57.6946C62.9515 57.5835 62.7997 57.456 62.6293 57.312C62.4238 57.131 62.2824 56.9543 62.2045 56.7818C62.1269 56.6118 62.1157 56.438 62.1708 56.26C62.2259 56.0821 62.3478 55.8879 62.5362 55.6776C62.7379 55.4523 62.93 55.3024 63.1132 55.2273C63.2975 55.151 63.4919 55.1432 63.696 55.2042L63.7785 55.1121C63.6588 55 63.5996 54.8838 63.601 54.7634C63.601 54.6421 63.6575 54.5179 63.7706 54.3914L64.161 54.7051L64.0608 54.8169C63.981 54.9062 63.9604 55.01 63.9997 55.1283C64.0361 55.2469 64.1403 55.3765 64.3119 55.5169L64.7182 55.8571C64.826 55.9391 64.9272 56.018 65.0214 56.0936C65.1142 56.1682 65.2057 56.2418 65.2958 56.314C65.3859 56.3863 65.4796 56.4626 65.5765 56.5429C65.6736 56.6234 65.7811 56.7141 65.8984 56.8154C66.1014 56.999 66.2409 57.1754 66.3172 57.3441C66.3935 57.5154 66.404 57.69 66.3489 57.8677C66.2938 58.0456 66.1725 58.239 65.9855 58.4483C65.8224 58.6196 65.7304 58.763 65.7089 58.8788C65.6864 58.9958 65.7271 59.096 65.8311 59.1799L65.8753 59.2154C65.941 59.2634 66.0078 59.2863 66.0756 59.2835C66.1432 59.2784 66.22 59.2449 66.3063 59.1837C66.3937 59.1212 66.5007 59.0261 66.6269 58.8983C66.9241 58.5851 67.1996 58.384 67.4537 58.2948C67.7074 58.2056 67.9737 58.2567 68.2519 58.4483C68.2853 58.4704 68.3182 58.4946 68.3505 58.5206C68.3828 58.5465 68.4148 58.5743 68.446 58.6041C68.6181 58.763 68.7169 58.9281 68.7421 59.0996C68.7676 59.2737 68.7337 59.4535 68.6398 59.6394C68.5486 59.825 68.4142 60.0171 68.2367 60.2156ZM67.8622 59.9045C67.9694 59.7847 68.0527 59.6728 68.1119 59.5689C68.1721 59.4638 68.1995 59.3645 68.1938 59.2706C68.1884 59.1768 68.1412 59.0876 68.0527 59.003C68.0245 58.978 67.9962 58.9554 67.9686 58.9351C67.9433 58.9148 67.9159 58.8952 67.8869 58.8764C67.7824 58.8039 67.6844 58.7744 67.5926 58.7877C67.5022 58.8021 67.4094 58.8466 67.3139 58.9209C67.2156 58.9955 67.1114 59.0904 67.0009 59.2056C66.8296 59.3727 66.7238 59.526 66.6836 59.6654C66.6434 59.8047 66.6928 59.9384 66.8324 60.0665C66.8552 60.0894 66.8801 60.1118 66.9067 60.1334C66.9333 60.1547 66.9607 60.1745 66.9884 60.192C67.0956 60.2666 67.1961 60.3002 67.2897 60.293C67.3847 60.2869 67.4781 60.2486 67.5701 60.1784C67.6635 60.1092 67.7609 60.0179 67.8622 59.9045ZM65.593 58.133C65.735 57.9744 65.802 57.8348 65.7941 57.7139C65.7873 57.5918 65.7005 57.4578 65.5336 57.3122C65.409 57.203 65.276 57.0893 65.1348 56.9715C64.9964 56.8535 64.8512 56.7334 64.6995 56.6113C64.5475 56.4894 64.3952 56.3703 64.2427 56.2546C64.0898 56.1363 63.9392 56.0224 63.791 55.9126C63.6108 55.7792 63.4563 55.7192 63.3279 55.7329C63.2009 55.7452 63.0663 55.8308 62.9243 55.9892C62.7824 56.1479 62.7142 56.2888 62.7197 56.4125C62.7251 56.5359 62.8133 56.6699 62.9843 56.8139C63.1301 56.9402 63.2788 57.0654 63.4311 57.1898C63.5806 57.3146 63.7286 57.4357 63.8746 57.5532C64.0209 57.6707 64.1656 57.7846 64.3086 57.8949C64.4506 58.0065 64.5893 58.1122 64.7247 58.212C64.9022 58.3431 65.0559 58.4025 65.1856 58.3897C65.3153 58.3771 65.4511 58.2914 65.593 58.133Z" fill="white"/>
<path d="M71.5876 52.9979C71.3772 53.3628 71.146 53.5834 70.8938 53.66C70.6425 53.7351 70.3282 53.6847 69.9503 53.5093C69.7185 53.3975 69.4691 53.2743 69.202 53.1401C68.9357 53.0043 68.6627 52.8639 68.3826 52.7191C68.1027 52.5744 67.8286 52.4316 67.5609 52.2912C67.2925 52.1483 67.0441 52.0141 66.8164 51.8881C66.4513 51.6793 66.2356 51.4522 66.1691 51.2069C66.1026 50.9616 66.1712 50.6617 66.3753 50.3077C66.5732 49.9641 66.795 49.7563 67.0403 49.6843C67.2865 49.6108 67.5979 49.6594 67.9743 49.8301C68.0634 49.8723 68.1939 49.9358 68.3655 50.0204C68.5373 50.1053 68.736 50.2071 68.9615 50.3259C69.1857 50.4439 69.4232 50.5746 69.6743 50.7186L68.797 52.2408C69.0286 52.3607 69.2693 52.4821 69.5196 52.6057C69.7682 52.7284 70.0312 52.8606 70.3089 53.0022C70.5163 53.1015 70.6816 53.1324 70.8042 53.0941C70.9245 53.0568 71.035 52.9506 71.1357 52.776C71.2328 52.6073 71.2646 52.4666 71.2309 52.3537C71.1948 52.2416 71.077 52.1287 70.8775 52.0156C70.7766 51.9575 70.6566 51.8924 70.5173 51.8202C70.3781 51.7482 70.2223 51.6705 70.0497 51.5874L70.3493 51.0675C70.4815 51.1259 70.6186 51.1909 70.7603 51.2622C70.9003 51.3326 71.0236 51.3995 71.13 51.4625C71.4883 51.6718 71.7051 51.8914 71.7808 52.1215C71.8563 52.3517 71.792 52.6438 71.5876 52.9979ZM68.36 52.0148L68.942 51.0053C68.7626 50.9083 68.5853 50.8147 68.4105 50.7245C68.2357 50.634 68.0786 50.5548 67.9393 50.4866C67.7993 50.4162 67.6929 50.364 67.6199 50.3303C67.4293 50.2416 67.2724 50.2133 67.1489 50.2449C67.0257 50.2765 66.9166 50.3745 66.8221 50.5386C66.7195 50.7165 66.6867 50.8646 66.7233 50.9832C66.7591 51.1033 66.8683 51.2143 67.0512 51.3169C67.2947 51.445 67.5224 51.5656 67.7341 51.6793C67.9461 51.7929 68.1546 51.9048 68.36 52.0148Z" fill="white"/>
<path d="M74.3198 46.5747L74.129 47.1579L68.5813 45.5284L68.7721 44.9452L69.2979 45.0998L69.338 44.9771C69.1513 44.8691 69.0359 44.7503 68.9914 44.6202C68.9488 44.4906 68.9575 44.335 69.0169 44.1532C69.0321 44.1064 69.049 44.0583 69.0672 44.0087C69.0875 43.958 69.1035 43.9151 69.1149 43.8801L69.6089 44.0252L69.5196 44.298C69.4393 44.5433 69.4282 44.7392 69.4865 44.8863C69.5435 45.0311 69.6716 45.1584 69.8711 45.2682L74.3198 46.5747Z" fill="white"/>
</g>
</g>
</g>
</g>
</g>
</g>
</g>
<defs>
<clipPath id="clip0_231_1875">
<rect width="76" height="72" fill="white"/>
</clipPath>
<clipPath id="clip1_231_1875">
<rect width="76" height="72" fill="white"/>
</clipPath>
<clipPath id="clip2_231_1875">
<rect width="76" height="72" fill="white"/>
</clipPath>
<clipPath id="clip3_231_1875">
<rect width="76" height="72" fill="white"/>
</clipPath>
<clipPath id="clip4_231_1875">
<rect width="76" height="72" fill="white"/>
</clipPath>
<clipPath id="clip5_231_1875">
<rect width="76" height="72" fill="white"/>
</clipPath>
<clipPath id="clip6_231_1875">
<rect width="76" height="72" fill="white"/>
</clipPath>
<clipPath id="clip7_231_1875">
<rect width="34.6155" height="33.9411" fill="white" transform="translate(20.6921 19.0294)"/>
</clipPath>
<clipPath id="clip8_231_1875">
<rect width="34.6155" height="33.9411" fill="white" transform="translate(20.6921 19.0294)"/>
</clipPath>
</defs>
</svg>
